<svg width="20" height="21" viewBox="0 0 20 21" fill="none" xmlns="http://www.w3.org/2000/svg">
<path d="M8.125 3.625H4.375C4.04348 3.625 3.72554 3.7567 3.49112 3.99112C3.2567 4.22554 3.125 4.54348 3.125 4.875V8.625C3.125 8.95652 3.2567 9.27446 3.49112 9.50888C3.72554 9.7433 4.04348 9.875 4.375 9.875H8.125C8.45652 9.875 8.77446 9.7433 9.00888 9.50888C9.2433 9.27446 9.375 8.95652 9.375 8.625V4.875C9.375 4.54348 9.2433 4.22554 9.00888 3.99112C8.77446 3.7567 8.45652 3.625 8.125 3.625ZM8.125 8.625H4.375V4.875H8.125V8.625ZM15.625 3.625H11.875C11.5435 3.625 11.2255 3.7567 10.9911 3.99112C10.7567 4.22554 10.625 4.54348 10.625 4.875V8.625C10.625 8.95652 10.7567 9.27446 10.9911 9.50888C11.2255 9.7433 11.5435 9.875 11.875 9.875H15.625C15.9565 9.875 16.2745 9.7433 16.5089 9.50888C16.7433 9.27446 16.875 8.95652 16.875 8.625V4.875C16.875 4.54348 16.7433 4.22554 16.5089 3.99112C16.2745 3.7567 15.9565 3.625 15.625 3.625ZM15.625 8.625H11.875V4.875H15.625V8.625ZM8.125 11.125H4.375C4.04348 11.125 3.72554 11.2567 3.49112 11.4911C3.2567 11.7255 3.125 12.0435 3.125 12.375V16.125C3.125 16.4565 3.2567 16.7745 3.49112 17.0089C3.72554 17.2433 4.04348 17.375 4.375 17.375H8.125C8.45652 17.375 8.77446 17.2433 9.00888 17.0089C9.2433 16.7745 9.375 16.4565 9.375 16.125V12.375C9.375 12.0435 9.2433 11.7255 9.00888 11.4911C8.77446 11.2567 8.45652 11.125 8.125 11.125ZM8.125 16.125H4.375V12.375H8.125V16.125ZM15.625 11.125H11.875C11.5435 11.125 11.2255 11.2567 10.9911 11.4911C10.7567 11.7255 10.625 12.0435 10.625 12.375V16.125C10.625 16.4565 10.7567 16.7745 10.9911 17.0089C11.2255 17.2433 11.5435 17.375 11.875 17.375H15.625C15.9565 17.375 16.2745 17.2433 16.5089 17.0089C16.7433 16.7745 16.875 16.4565 16.875 16.125V12.375C16.875 12.0435 16.7433 11.7255 16.5089 11.4911C16.2745 11.2567 15.9565 11.125 15.625 11.125ZM15.625 16.125H11.875V12.375H15.625V16.125Z" fill="white"/>
</svg>
