<svg width="33" height="30" viewBox="0 0 33 30" fill="none" xmlns="http://www.w3.org/2000/svg">
<path d="M29.1704 0H3.21598C1.45018 0 0.011985 1.43823 0.011985 3.1907L0 23.0527C0 24.8305 1.46219 26.2567 3.228 26.2567H6.5279C6.23759 25.7374 5.97126 25.1808 5.76617 24.6001H3.228C2.36908 24.6001 1.68058 23.9117 1.68058 23.0527L1.66859 8.07385H30.7192V23.0527C30.7192 23.9116 30.0294 24.6001 29.1717 24.6001H26.6336C26.4285 25.1807 26.1622 25.7374 25.8718 26.2567H29.1717C30.9362 26.2567 32.3877 24.8305 32.3877 23.0527L32.3864 3.19207C32.3864 1.43959 30.9362 0.0013637 29.1704 0.0013637L29.1704 0ZM4.3761 5.04171H4.10976C3.55313 5.04171 3.11901 4.59426 3.11901 4.03763C3.11901 3.48099 3.55446 3.03487 4.10976 3.03487H4.3761C4.93274 3.03487 5.37885 3.48232 5.37885 4.03763C5.37885 4.59426 4.93141 5.04171 4.3761 5.04171ZM7.84519 5.04171H7.57885C7.01022 5.04171 6.5641 4.59426 6.5641 4.03763C6.5641 3.48099 7.01155 3.03487 7.57885 3.03487H7.84519C8.37786 3.03487 8.83594 3.48232 8.83594 4.03763C8.83594 4.59426 8.3765 5.04171 7.84519 5.04171ZM11.2795 5.04171H11.0252C10.4938 5.04171 10.0344 4.59426 10.0344 4.03763C10.0344 3.48099 10.4939 3.03487 11.0252 3.03487H11.2795C11.8481 3.03487 12.3076 3.48232 12.3076 4.03763C12.3076 4.59426 11.8481 5.04171 11.2795 5.04171ZM28.5673 4.94449H22.4988C22.0154 4.94449 21.5919 4.54498 21.5919 4.03761C21.5919 3.53023 22.0154 3.14272 22.4988 3.14272H28.5673C29.0627 3.14272 29.4742 3.53023 29.4742 4.03761C29.4742 4.54498 29.0628 4.94449 28.5673 4.94449Z" fill="#0073E5"/>
<path d="M18.5948 13.4189L18.512 15.3048C18.511 15.3286 18.5167 15.3523 18.5286 15.3729C18.5405 15.3936 18.558 15.4104 18.579 15.4214C18.6001 15.4323 18.6238 15.437 18.6473 15.4348C18.6709 15.4327 18.6934 15.4238 18.7121 15.4092L19.4438 14.8524L20.065 15.3396C20.0832 15.3519 20.1044 15.3591 20.1263 15.3605C20.1482 15.3619 20.1701 15.3575 20.1898 15.3476C20.2094 15.3377 20.2261 15.3227 20.2381 15.3042C20.2502 15.2857 20.2571 15.2642 20.2583 15.2421L20.1892 13.3214L21.1073 13.2519C21.2206 13.2442 21.3343 13.2602 21.4412 13.2987C21.5482 13.3372 21.6461 13.3975 21.729 13.4759C21.8118 13.5542 21.8778 13.6488 21.9229 13.754C21.9679 13.8591 21.991 13.9724 21.9908 14.0869V29.1184C21.9909 29.2317 21.9682 29.3438 21.924 29.4479C21.8798 29.5521 21.8151 29.6461 21.7337 29.7242C21.6524 29.8023 21.5561 29.8629 21.4508 29.9023C21.3454 29.9418 21.2333 29.9592 21.1211 29.9535L10.0083 29.4525C9.7993 29.4438 9.60134 29.3557 9.45411 29.206C9.30688 29.0563 9.22127 28.8559 9.21448 28.6452L8.6968 14.8663C8.69027 14.7566 8.70528 14.6467 8.74097 14.5429C8.77666 14.439 8.83234 14.3433 8.9048 14.2612C8.97726 14.1791 9.06508 14.1122 9.16324 14.0644C9.26139 14.0166 9.36793 13.9888 9.47677 13.9826L18.5879 13.405L18.5948 13.4189ZM16.4758 19.7237C16.4758 20.0508 18.6569 19.8908 18.9537 19.6681C18.9537 17.4412 17.7665 16.2651 15.5992 16.2651C13.4249 16.2651 12.217 17.4621 12.217 19.2505C12.217 22.3473 16.3584 22.403 16.3584 24.094C16.3584 24.5811 16.1376 24.8595 15.6337 24.8595C14.9711 24.8595 14.7019 24.5185 14.7364 23.3564C14.7364 23.1058 12.217 23.0223 12.1342 23.3564C11.9478 26.1608 13.6734 26.975 15.6544 26.975C17.5801 26.975 19.0849 25.9381 19.0849 24.0662C19.0849 20.7467 14.8744 20.8372 14.8744 19.1949C14.8744 18.5198 15.3714 18.4294 15.6544 18.4294C15.965 18.4294 16.5172 18.4781 16.4758 19.7307V19.7237Z" fill="#0073E5"/>
</svg>
