<svg width="17" height="16" viewBox="0 0 17 16" fill="none" xmlns="http://www.w3.org/2000/svg">
<path d="M5.42984 7.58259C5.07429 7.58259 4.76008 7.51644 4.49548 7.38414C4.23088 7.25184 4.01589 7.06993 3.86705 6.83014C3.71822 6.59034 3.6438 6.31748 3.6438 6.00326V3.19189H4.52855V5.92885C4.52855 6.09422 4.5699 6.24306 4.64431 6.37536C4.71873 6.50766 4.82623 6.60688 4.95853 6.6813C5.09083 6.75572 5.24793 6.79706 5.42984 6.79706C5.61176 6.79706 5.76886 6.75572 5.90116 6.6813C6.03346 6.60688 6.14095 6.50766 6.21537 6.37536C6.28979 6.24306 6.33114 6.09422 6.33114 5.92885V3.19189H7.22416V6.00326C7.22416 6.31748 7.14974 6.59861 7.0009 6.83014C6.85207 7.06166 6.64535 7.25184 6.37248 7.38414C6.10788 7.51644 5.79367 7.58259 5.42984 7.58259Z" fill="#0073E5"/>
<path d="M8.88616 3.19189V7.52471H8.0014V3.19189H8.88616Z" fill="#0073E5"/>
<path d="M6.43035 12.7337H7.08358L5.33061 10.2779L7.07531 8.40088H6.34766C6.34766 8.40088 4.3549 10.5425 4.30529 10.6004V9.88925V8.40915H3.75128V12.742H4.30529V11.3197L4.92544 10.6582L6.40555 12.742L6.43035 12.7337Z" fill="#0073E5"/>
<path d="M8.32396 8.40088V12.7337H7.76996V8.40088H8.32396Z" fill="#0073E5"/>
<path d="M9.13428 8.88873V8.40088H12.4087V8.88873H11.0526V12.7337H10.4986V8.88873H9.13428Z" fill="#0073E5"/>
<path d="M16.0221 1.70336H14.3188V0H16.0221V1.70336ZM14.7322 1.28992H15.6087V0.413437H14.7322V1.28992Z" fill="#0073E5"/>
<path d="M1.72545 15.9421H0.0220947V14.2388H1.72545V15.9421ZM0.435532 15.5287H1.31202V14.6522H0.435532V15.5287Z" fill="#0073E5"/>
<path d="M16.0221 15.9587H14.3188V14.2554H16.0221V15.9587ZM14.7322 15.5453H15.6087V14.6688H14.7322V15.5453Z" fill="#0073E5"/>
<path d="M1.72545 1.70336H0.0220947V0H1.72545V1.70336ZM0.435532 1.28992H1.31202V0.413437H0.435532V1.28992Z" fill="#0073E5"/>
<path d="M14.451 14.8916H1.60138V15.305H14.451V14.8916Z" fill="#0073E5"/>
<path d="M15.3771 1.57959H14.9637V14.3879H15.3771V1.57959Z" fill="#0073E5"/>
<path d="M1.08043 1.57959H0.666992V14.3879H1.08043V1.57959Z" fill="#0073E5"/>
<path d="M14.451 0.64502H1.60138V1.05846H14.451V0.64502Z" fill="#0073E5"/>
</svg>
