<svg width="23" height="24" viewBox="0 0 23 24" fill="none" xmlns="http://www.w3.org/2000/svg">
<path d="M11.9596 23.9934C18.0548 23.9934 22.996 19.0522 22.996 12.9569C22.996 6.86161 18.0548 1.92041 11.9596 1.92041C5.86428 1.92041 0.92308 6.86161 0.92308 12.9569C0.92308 19.0522 5.86428 23.9934 11.9596 23.9934Z" fill="#F88F8F"/>
<path d="M21.705 18.1474C19.8513 21.6298 16.1835 24 11.9596 24C7.78198 24 4.14729 21.6762 2.27367 18.2534C2.93572 17.6641 3.84936 17.0948 4.47832 16.8035C5.38533 16.3797 6.51745 15.9825 7.83494 15.7773C9.15243 15.572 10.5957 15.486 11.9596 15.486C15.7598 15.486 17.6201 16.0553 19.4408 16.8035C20.2286 17.1212 21.0694 17.6244 21.705 18.1474Z" fill="url(#paint0_linear_307_3623)"/>
<path d="M14.6806 15.6448V13.0165H9.2451V15.6448C8.41753 15.7839 7.84154 16.0686 7.84154 16.6578C7.84154 17.8164 9.41061 19.0147 11.9595 19.0147C14.6078 19.0147 16.0775 17.8098 16.0775 16.6578C16.0775 16.0686 15.5081 15.7839 14.6806 15.6448Z" fill="#FBCBAB"/>
<path d="M8.64262 9.7989C8.64262 8.98457 8.28512 7.98486 7.84154 7.98486C7.39796 7.98486 6.94776 8.14376 6.94776 8.95809C6.94776 9.3487 7.08679 10.2359 7.22583 10.6198C7.37148 11.0369 7.61644 11.2753 7.84816 11.2753C8.28511 11.2753 8.64262 10.6132 8.64262 9.7989Z" fill="#FBCBAB"/>
<path d="M15.2765 9.7989C15.2765 8.98457 15.634 7.98486 16.0776 7.98486C16.5212 7.98486 16.9714 8.14376 16.9714 8.95809C16.9714 9.3487 16.8323 10.2359 16.6933 10.6198C16.5476 11.0369 16.3027 11.2753 16.071 11.2753C15.6406 11.2753 15.2765 10.6132 15.2765 9.7989Z" fill="#ECA182"/>
<path d="M14.6806 13.6322V15.0291C14.568 15.1285 14.4489 15.2211 14.3231 15.3072C13.8464 15.6382 13.5154 15.8567 13.2042 15.9891C12.893 16.1215 12.6017 16.1679 12.2244 16.1679C11.463 16.1679 11.0724 15.9759 10.1256 15.3072C9.79462 15.0689 9.49669 14.7908 9.23849 14.473V13.6322C9.42386 13.8308 9.63572 14.003 9.86082 14.1618C10.8076 14.8305 11.1982 15.0225 11.9595 15.0225C12.3435 15.0225 12.6282 14.9762 12.9394 14.8438C13.2505 14.7114 13.5816 14.4995 14.0583 14.1618C14.2834 14.003 14.4886 13.8308 14.6806 13.6322Z" fill="#DB9172"/>
<path d="M11.9596 2.95984C8.68903 2.95984 7.79525 5.7802 7.79525 9.26261C7.79525 11.5732 8.51689 13.2151 9.86087 14.1618C10.8076 14.8305 11.1982 15.0225 11.9596 15.0225C12.7209 15.0225 13.1116 14.8305 14.0583 14.1618C15.4023 13.2151 16.1239 11.5666 16.1239 9.26261C16.1239 5.7802 15.2368 2.95984 11.9596 2.95984Z" fill="#FBCBAB"/>
<path d="M11.9596 2.95984C11.9 2.95984 11.847 2.95984 11.7941 2.96646C14.6872 3.05915 15.4883 5.8464 15.4883 9.26261C15.4883 11.5732 14.8196 13.2151 13.5816 14.1618C12.7739 14.7775 12.4031 14.9894 11.7941 15.0159C11.847 15.0159 11.9 15.0225 11.9596 15.0225C12.7209 15.0225 13.1115 14.8305 14.0583 14.1618C15.4023 13.2151 16.1239 11.5666 16.1239 9.26261C16.1239 5.7802 15.2367 2.95984 11.9596 2.95984Z" fill="#ECA182"/>
<path d="M17.3487 4.41635C17.3156 3.63512 17.1501 2.54273 16.0246 2.23156C15.6936 2.13888 15.3294 1.97336 15.0779 1.84757C14.6608 1.63571 14.2834 1.13917 13.0983 0.642629C12.1119 0.225534 10.2713 -0.158459 9.30473 0.0798814C7.96738 0.41091 7.95414 1.43048 7.59663 1.81447C7.20602 2.24481 6.53072 2.66852 6.46452 3.21803C6.36521 4.05222 7.11333 4.67455 7.08023 5.45578C7.05375 6.09135 6.84189 6.72693 6.99416 7.36912C7.07361 7.70677 7.49732 7.95835 7.55691 8.30924C7.59001 8.50786 7.64298 8.99778 7.78863 9.15667C8.10642 9.50756 8.10641 7.25657 8.17924 6.5879C8.23882 6.02515 8.41758 5.38957 8.74199 4.91289C9.15908 4.29718 9.82776 4.37001 10.4832 4.50904C11.1519 4.65469 11.7742 4.7871 12.4627 4.70766C13.1513 4.62821 13.8862 4.31704 14.5615 4.64145C15.197 4.946 15.5612 5.63454 15.7134 6.28997C15.7863 6.621 15.7267 8.84551 16.0709 8.99116C16.2563 9.07061 16.3225 8.33572 16.6668 8.08414C16.9647 7.87228 17.0508 7.61408 17.1236 7.26319C17.2958 6.3959 17.3818 5.29026 17.3487 4.41635Z" fill="#1D2247"/>
<path d="M16.0775 8.99122C15.7267 8.84557 15.7929 6.62106 15.72 6.29003C15.5678 5.6346 15.2036 4.94606 14.5681 4.64151C13.8928 4.3171 13.1579 4.62827 12.4693 4.70772C11.7808 4.78716 11.1518 4.65475 10.4898 4.5091C9.83436 4.36345 9.16568 4.29062 8.74858 4.91295C8.42418 5.39625 8.24542 6.02521 8.18584 6.58796C8.11963 7.21029 8.11301 9.18984 7.86143 9.18984C8.13287 9.21632 8.2388 7.58766 8.31162 7.03816C8.37121 6.54161 8.49038 5.71404 8.82141 5.29033C9.45036 4.48262 10.119 4.7011 10.748 4.92619C11.4431 5.17778 11.7874 5.31019 12.4826 5.23736C13.1711 5.16454 13.906 4.89309 14.5813 5.17778C15.2169 5.4426 15.6207 5.97887 15.7068 6.70713C15.7399 7.00505 15.7399 8.87205 16.0908 9.00446C16.1106 9.01108 16.1239 9.00446 16.1305 8.9846C16.1106 8.99784 16.0974 8.99784 16.0775 8.99122ZM7.76874 9.13025C7.77536 9.14349 7.78198 9.15673 7.79522 9.16335C7.80184 9.16997 7.80846 9.17659 7.82171 9.18322C7.81508 9.17659 7.80846 9.16998 7.79522 9.15674C7.7886 9.15011 7.77536 9.13687 7.76874 9.13025Z" fill="#DB9172"/>
<path d="M13.0917 0.636037C12.1052 0.218942 10.2647 -0.165051 9.29807 0.0732896C7.96072 0.404318 7.94748 1.42388 7.58997 1.80788C7.19935 2.23821 6.52405 2.66193 6.45785 3.21144C6.35854 4.04563 7.10666 4.66796 7.07356 5.44919C7.04708 6.08476 6.83522 6.72033 6.98749 7.36253C6.99411 7.38901 7.00074 7.40225 7.00074 7.41549V7.42211C7.0537 7.52142 7.04046 6.69385 7.43107 6.15759C7.85479 5.57498 7.81507 4.52893 7.45756 3.56895C7.31852 3.19157 7.27218 2.27794 8.51685 2.18525C9.05973 2.14553 9.55627 1.52981 10.2713 1.02665C11.5491 0.126256 13.6345 1.56953 14.1642 1.47023C14.2039 1.46361 14.2304 1.45699 14.2569 1.44375C13.992 1.16568 13.6081 0.854516 13.0917 0.636037Z" fill="#3843A1"/>
<defs>
<linearGradient id="paint0_linear_307_3623" x1="2.272" y1="19.7408" x2="21.7047" y2="19.7408" gradientUnits="userSpaceOnUse">
<stop stop-color="#2581C4"/>
<stop offset="1" stop-color="#2D2E83"/>
</linearGradient>
</defs>
</svg>
