<svg width="143" height="34" viewBox="0 0 143 34" fill="none" xmlns="http://www.w3.org/2000/svg">
<path d="M30.4751 1.02344H4.52067C2.75487 1.02344 1.31667 2.46166 1.31667 4.21414L1.30469 24.0762C1.30469 25.854 2.76688 27.2802 4.53269 27.2802H7.83258C7.54228 26.7608 7.27595 26.2042 7.07086 25.6236H4.53269C3.67377 25.6236 2.98527 24.9351 2.98527 24.0762L2.97328 9.09729H32.0239V24.0762C32.0239 24.9351 31.3341 25.6236 30.4764 25.6236H27.9383C27.7332 26.2042 27.4669 26.7608 27.1765 27.2802H30.4764C32.2409 27.2802 33.6924 25.854 33.6924 24.0762L33.6911 4.21551C33.6911 2.46303 32.2409 1.0248 30.4751 1.0248L30.4751 1.02344ZM5.68079 6.06514H5.41445C4.85781 6.06514 4.4237 5.6177 4.4237 5.06106C4.4237 4.50443 4.85914 4.05831 5.41445 4.05831H5.68079C6.23742 4.05831 6.68354 4.50576 6.68354 5.06106C6.68354 5.6177 6.23609 6.06514 5.68079 6.06514ZM9.14988 6.06514H8.88354C8.3149 6.06514 7.86879 5.6177 7.86879 5.06106C7.86879 4.50443 8.31623 4.05831 8.88354 4.05831H9.14988C9.68255 4.05831 10.1406 4.50576 10.1406 5.06106C10.1406 5.6177 9.68118 6.06514 9.14988 6.06514ZM12.5842 6.06514H12.3298C11.7985 6.06514 11.3391 5.6177 11.3391 5.06106C11.3391 4.50443 11.7985 4.05831 12.3298 4.05831H12.5842C13.1528 4.05831 13.6122 4.50576 13.6122 5.06106C13.6122 5.6177 13.1528 6.06514 12.5842 6.06514ZM29.872 5.96793H23.8035C23.3201 5.96793 22.8966 5.56842 22.8966 5.06104C22.8966 4.55367 23.3201 4.16616 23.8035 4.16616H29.872C30.3674 4.16616 30.7789 4.55367 30.7789 5.06104C30.7789 5.56842 30.3674 5.96793 29.872 5.96793Z" fill="#0073E5"/>
<path d="M19.8995 14.4423L19.8167 16.3282C19.8157 16.3521 19.8214 16.3757 19.8333 16.3964C19.8452 16.417 19.8627 16.4338 19.8837 16.4448C19.9047 16.4558 19.9284 16.4604 19.952 16.4583C19.9756 16.4561 19.9981 16.4472 20.0168 16.4326L20.7485 15.8759L21.3697 16.363C21.3879 16.3753 21.4091 16.3826 21.431 16.384C21.4529 16.3854 21.4748 16.3809 21.4944 16.371C21.5141 16.3611 21.5308 16.3461 21.5428 16.3276C21.5548 16.3091 21.5618 16.2877 21.563 16.2656L21.4939 14.3449L22.4119 14.2753C22.5253 14.2677 22.6389 14.2836 22.7459 14.3221C22.8529 14.3607 22.9508 14.421 23.0337 14.4993C23.1165 14.5776 23.1825 14.6723 23.2276 14.7774C23.2726 14.8825 23.2957 14.9959 23.2955 15.1104V30.1419C23.2956 30.2551 23.2729 30.3672 23.2287 30.4714C23.1845 30.5755 23.1198 30.6695 23.0384 30.7476C22.957 30.8257 22.8608 30.8863 22.7555 30.9258C22.6501 30.9652 22.538 30.9826 22.4258 30.9769L11.3129 30.4759C11.104 30.4672 10.906 30.3792 10.7588 30.2294C10.6116 30.0797 10.526 29.8794 10.5192 29.6686L10.0015 15.8898C9.99496 15.7801 10.01 15.6702 10.0457 15.5663C10.0814 15.4625 10.137 15.3667 10.2095 15.2846C10.2819 15.2025 10.3698 15.1356 10.4679 15.0878C10.5661 15.04 10.6726 15.0122 10.7815 15.006L19.8926 14.4284L19.8995 14.4423ZM17.7805 20.7472C17.7805 21.0743 19.9616 20.9142 20.2584 20.6915C20.2584 18.4646 19.0712 17.2885 16.9039 17.2885C14.7296 17.2885 13.5217 18.4855 13.5217 20.274C13.5217 23.3707 17.6631 23.4264 17.6631 25.1174C17.6631 25.6046 17.4422 25.8829 16.9384 25.8829C16.2757 25.8829 16.0065 25.5419 16.0411 24.3798C16.0411 24.1293 13.5217 24.0458 13.4389 24.3798C13.2525 27.1843 14.9781 27.9985 16.9591 27.9985C18.8848 27.9985 20.3896 26.9616 20.3896 25.0896C20.3896 21.7702 16.1791 21.8606 16.1791 20.2183C16.1791 19.5433 16.6761 19.4528 16.9591 19.4528C17.2697 19.4528 17.8219 19.5015 17.7805 20.7541V20.7472Z" fill="#0073E5"/>
<path d="M45.2919 12.5L42.0078 0.863636H44.2749L46.3714 9.41477H46.4794L48.718 0.863636H50.7805L53.0249 9.42045H53.1271L55.2237 0.863636H57.4908L54.2067 12.5H52.1271L49.7976 4.33523H49.7067L47.3714 12.5H45.2919ZM60.4822 12.6761C59.9292 12.6761 59.4311 12.5777 58.9879 12.3807C58.5485 12.1799 58.2 11.8845 57.9425 11.4943C57.6887 11.1042 57.5618 10.6231 57.5618 10.0511C57.5618 9.55871 57.6527 9.15152 57.8345 8.82955C58.0163 8.50758 58.2644 8.25 58.5788 8.05682C58.8932 7.86364 59.2474 7.7178 59.6413 7.61932C60.0391 7.51705 60.45 7.44318 60.8743 7.39773C61.3857 7.3447 61.8004 7.29735 62.1186 7.25568C62.4368 7.21023 62.6679 7.14205 62.8118 7.05114C62.9595 6.95644 63.0334 6.81061 63.0334 6.61364V6.57955C63.0334 6.15152 62.9065 5.82008 62.6527 5.58523C62.3989 5.35038 62.0334 5.23295 61.5561 5.23295C61.0523 5.23295 60.6527 5.3428 60.3572 5.5625C60.0656 5.7822 59.8686 6.04167 59.7663 6.34091L57.8459 6.06818C57.9974 5.53788 58.2474 5.0947 58.5959 4.73864C58.9444 4.37879 59.3705 4.10985 59.8743 3.93182C60.3781 3.75 60.9349 3.65909 61.5447 3.65909C61.9652 3.65909 62.3838 3.70833 62.8004 3.80682C63.2171 3.9053 63.5978 4.06818 63.9425 4.29545C64.2872 4.51894 64.5637 4.82386 64.772 5.21023C64.9841 5.59659 65.0902 6.07955 65.0902 6.65909V12.5H63.1129V11.3011H63.0447C62.9197 11.5436 62.7436 11.7708 62.5163 11.983C62.2929 12.1913 62.0107 12.3598 61.6697 12.4886C61.3326 12.6136 60.9368 12.6761 60.4822 12.6761ZM61.0163 11.1648C61.4292 11.1648 61.7872 11.0833 62.0902 10.9205C62.3932 10.7538 62.6262 10.5341 62.7891 10.2614C62.9557 9.98864 63.0391 9.69129 63.0391 9.36932V8.34091C62.9747 8.39394 62.8648 8.44318 62.7095 8.48864C62.558 8.53409 62.3875 8.57386 62.1982 8.60795C62.0088 8.64205 61.8213 8.67235 61.6357 8.69886C61.45 8.72538 61.2891 8.74811 61.1527 8.76705C60.8459 8.80871 60.5713 8.87689 60.3288 8.97159C60.0864 9.06629 59.8951 9.19886 59.755 9.36932C59.6148 9.53598 59.5447 9.75189 59.5447 10.017C59.5447 10.3958 59.683 10.6818 59.9595 10.875C60.236 11.0682 60.5883 11.1648 61.0163 11.1648ZM74.6413 3.77273L71.5334 12.5H69.2607L66.1527 3.77273H68.3459L70.3516 10.2557H70.4425L72.4538 3.77273H74.6413ZM79.6314 12.6705C78.7564 12.6705 78.0007 12.4886 77.3643 12.125C76.7318 11.7576 76.245 11.2386 75.9041 10.5682C75.5632 9.89394 75.3928 9.10038 75.3928 8.1875C75.3928 7.28977 75.5632 6.50189 75.9041 5.82386C76.2488 5.14205 76.7299 4.61174 77.3473 4.23295C77.9647 3.85038 78.6901 3.65909 79.5234 3.65909C80.0613 3.65909 80.5689 3.74621 81.0462 3.92045C81.5272 4.09091 81.9515 4.35606 82.3189 4.71591C82.6901 5.07576 82.9818 5.53409 83.1939 6.09091C83.406 6.64394 83.5121 7.30303 83.5121 8.06818V8.69886H76.3587V7.3125H81.5405C81.5367 6.91856 81.4515 6.56818 81.2848 6.26136C81.1181 5.95076 80.8852 5.70644 80.5859 5.52841C80.2905 5.35038 79.9458 5.26136 79.5518 5.26136C79.1314 5.26136 78.7621 5.36364 78.4439 5.56818C78.1257 5.76894 77.8776 6.03409 77.6996 6.36364C77.5253 6.68939 77.4363 7.04735 77.4325 7.4375V8.64773C77.4325 9.1553 77.5253 9.59091 77.7109 9.95455C77.8965 10.3144 78.156 10.5909 78.4893 10.7841C78.8227 10.9735 79.2128 11.0682 79.6598 11.0682C79.959 11.0682 80.2299 11.0265 80.4723 10.9432C80.7147 10.8561 80.925 10.7292 81.103 10.5625C81.281 10.3958 81.4155 10.1894 81.5064 9.94318L83.4268 10.1591C83.3056 10.6667 83.0746 11.1098 82.7337 11.4886C82.3965 11.8636 81.9647 12.1553 81.4382 12.3636C80.9117 12.5682 80.3094 12.6705 79.6314 12.6705ZM85.343 0.863636H87.9226L91.3771 9.29545H91.5135L94.968 0.863636H97.5476V12.5H95.5249V4.50568H95.4169L92.201 12.4659H90.6896L87.4737 4.48864H87.3658V12.5H85.343V0.863636ZM102.263 12.6761C101.71 12.6761 101.212 12.5777 100.769 12.3807C100.33 12.1799 99.9813 11.8845 99.7237 11.4943C99.4699 11.1042 99.343 10.6231 99.343 10.0511C99.343 9.55871 99.4339 9.15152 99.6158 8.82955C99.7976 8.50758 100.046 8.25 100.36 8.05682C100.674 7.86364 101.029 7.7178 101.423 7.61932C101.82 7.51705 102.231 7.44318 102.656 7.39773C103.167 7.3447 103.582 7.29735 103.9 7.25568C104.218 7.21023 104.449 7.14205 104.593 7.05114C104.741 6.95644 104.815 6.81061 104.815 6.61364V6.57955C104.815 6.15152 104.688 5.82008 104.434 5.58523C104.18 5.35038 103.815 5.23295 103.337 5.23295C102.834 5.23295 102.434 5.3428 102.138 5.5625C101.847 5.7822 101.65 6.04167 101.548 6.34091L99.6271 6.06818C99.7786 5.53788 100.029 5.0947 100.377 4.73864C100.726 4.37879 101.152 4.10985 101.656 3.93182C102.159 3.75 102.716 3.65909 103.326 3.65909C103.746 3.65909 104.165 3.70833 104.582 3.80682C104.998 3.9053 105.379 4.06818 105.724 4.29545C106.068 4.51894 106.345 4.82386 106.553 5.21023C106.765 5.59659 106.871 6.07955 106.871 6.65909V12.5H104.894V11.3011H104.826C104.701 11.5436 104.525 11.7708 104.298 11.983C104.074 12.1913 103.792 12.3598 103.451 12.4886C103.114 12.6136 102.718 12.6761 102.263 12.6761ZM102.798 11.1648C103.21 11.1648 103.568 11.0833 103.871 10.9205C104.174 10.7538 104.407 10.5341 104.57 10.2614C104.737 9.98864 104.82 9.69129 104.82 9.36932V8.34091C104.756 8.39394 104.646 8.44318 104.491 8.48864C104.339 8.53409 104.169 8.57386 103.979 8.60795C103.79 8.64205 103.603 8.67235 103.417 8.69886C103.231 8.72538 103.07 8.74811 102.934 8.76705C102.627 8.80871 102.353 8.87689 102.11 8.97159C101.868 9.06629 101.676 9.19886 101.536 9.36932C101.396 9.53598 101.326 9.75189 101.326 10.017C101.326 10.3958 101.464 10.6818 101.741 10.875C102.017 11.0682 102.37 11.1648 102.798 11.1648ZM110.815 9.76136L110.809 7.27841H111.138L114.275 3.77273H116.678L112.82 8.06818H112.394L110.815 9.76136ZM108.94 12.5V0.863636H110.996V12.5H108.94ZM114.417 12.5L111.576 8.52841L112.962 7.07955L116.877 12.5H114.417ZM121.553 12.6705C120.678 12.6705 119.923 12.4886 119.286 12.125C118.654 11.7576 118.167 11.2386 117.826 10.5682C117.485 9.89394 117.315 9.10038 117.315 8.1875C117.315 7.28977 117.485 6.50189 117.826 5.82386C118.171 5.14205 118.652 4.61174 119.269 4.23295C119.887 3.85038 120.612 3.65909 121.445 3.65909C121.983 3.65909 122.491 3.74621 122.968 3.92045C123.449 4.09091 123.873 4.35606 124.241 4.71591C124.612 5.07576 124.904 5.53409 125.116 6.09091C125.328 6.64394 125.434 7.30303 125.434 8.06818V8.69886H118.281V7.3125H123.462C123.459 6.91856 123.373 6.56818 123.207 6.26136C123.04 5.95076 122.807 5.70644 122.508 5.52841C122.212 5.35038 121.868 5.26136 121.474 5.26136C121.053 5.26136 120.684 5.36364 120.366 5.56818C120.048 5.76894 119.799 6.03409 119.621 6.36364C119.447 6.68939 119.358 7.04735 119.354 7.4375V8.64773C119.354 9.1553 119.447 9.59091 119.633 9.95455C119.818 10.3144 120.078 10.5909 120.411 10.7841C120.745 10.9735 121.135 11.0682 121.582 11.0682C121.881 11.0682 122.152 11.0265 122.394 10.9432C122.637 10.8561 122.847 10.7292 123.025 10.5625C123.203 10.3958 123.337 10.1894 123.428 9.94318L125.349 10.1591C125.228 10.6667 124.996 11.1098 124.656 11.4886C124.318 11.8636 123.887 12.1553 123.36 12.3636C122.834 12.5682 122.231 12.6705 121.553 12.6705ZM127.174 12.5V3.77273H129.168V5.22727H129.259C129.418 4.72348 129.691 4.33523 130.077 4.0625C130.468 3.78598 130.913 3.64773 131.413 3.64773C131.526 3.64773 131.653 3.65341 131.793 3.66477C131.937 3.67235 132.057 3.68561 132.151 3.70455V5.59659C132.064 5.56629 131.926 5.53977 131.737 5.51705C131.551 5.49053 131.371 5.47727 131.197 5.47727C130.822 5.47727 130.485 5.55871 130.185 5.72159C129.89 5.88068 129.657 6.10227 129.487 6.38636C129.316 6.67045 129.231 6.99811 129.231 7.36932V12.5H127.174ZM52.8033 22.7898H50.6783C50.6177 22.4413 50.5059 22.1326 50.343 21.8636C50.1802 21.5909 49.9775 21.3598 49.7351 21.1705C49.4927 20.9811 49.2161 20.839 48.9055 20.7443C48.5987 20.6458 48.2673 20.5966 47.9112 20.5966C47.2786 20.5966 46.718 20.7557 46.2294 21.0739C45.7408 21.3883 45.3582 21.8504 45.0817 22.4602C44.8052 23.0663 44.6669 23.8068 44.6669 24.6818C44.6669 25.572 44.8052 26.322 45.0817 26.9318C45.362 27.5379 45.7446 27.9962 46.2294 28.3068C46.718 28.6136 47.2768 28.767 47.9055 28.767C48.254 28.767 48.5798 28.7216 48.8828 28.6307C49.1896 28.536 49.4643 28.3977 49.7067 28.2159C49.9529 28.0341 50.1593 27.8106 50.326 27.5455C50.4964 27.2803 50.6139 26.9773 50.6783 26.6364L52.8033 26.6477C52.7237 27.2008 52.5514 27.7197 52.2862 28.2045C52.0249 28.6894 51.6821 29.1174 51.2578 29.4886C50.8336 29.8561 50.3374 30.1439 49.7692 30.3523C49.201 30.5568 48.5703 30.6591 47.8771 30.6591C46.8544 30.6591 45.9415 30.4223 45.1385 29.9489C44.3355 29.4754 43.7029 28.7917 43.2408 27.8977C42.7786 27.0038 42.5476 25.9318 42.5476 24.6818C42.5476 23.428 42.7805 22.3561 43.2464 21.4659C43.7124 20.572 44.3468 19.8883 45.1499 19.4148C45.9529 18.9413 46.862 18.7045 47.8771 18.7045C48.5249 18.7045 49.1271 18.7955 49.6839 18.9773C50.2408 19.1591 50.737 19.4261 51.1726 19.7784C51.6082 20.1269 51.9661 20.5549 52.2464 21.0625C52.5305 21.5663 52.7161 22.142 52.8033 22.7898ZM58.4496 30.6705C57.5973 30.6705 56.8587 30.483 56.2337 30.108C55.6087 29.733 55.1238 29.2083 54.7791 28.5341C54.4382 27.8598 54.2678 27.072 54.2678 26.1705C54.2678 25.2689 54.4382 24.4792 54.7791 23.8011C55.1238 23.1231 55.6087 22.5966 56.2337 22.2216C56.8587 21.8466 57.5973 21.6591 58.4496 21.6591C59.3018 21.6591 60.0405 21.8466 60.6655 22.2216C61.2905 22.5966 61.7734 23.1231 62.1143 23.8011C62.459 24.4792 62.6314 25.2689 62.6314 26.1705C62.6314 27.072 62.459 27.8598 62.1143 28.5341C61.7734 29.2083 61.2905 29.733 60.6655 30.108C60.0405 30.483 59.3018 30.6705 58.4496 30.6705ZM58.4609 29.0227C58.9231 29.0227 59.3094 28.8958 59.62 28.642C59.9306 28.3845 60.1617 28.0398 60.3132 27.608C60.4685 27.1761 60.5462 26.6951 60.5462 26.1648C60.5462 25.6307 60.4685 25.1477 60.3132 24.7159C60.1617 24.2803 59.9306 23.9337 59.62 23.6761C59.3094 23.4186 58.9231 23.2898 58.4609 23.2898C57.9875 23.2898 57.5935 23.4186 57.2791 23.6761C56.9685 23.9337 56.7356 24.2803 56.5803 24.7159C56.4287 25.1477 56.353 25.6307 56.353 26.1648C56.353 26.6951 56.4287 27.1761 56.5803 27.608C56.7356 28.0398 56.9685 28.3845 57.2791 28.642C57.5935 28.8958 57.9875 29.0227 58.4609 29.0227ZM64.3771 30.5V21.7727H66.343V23.2557H66.4453C66.6271 22.7557 66.9283 22.3655 67.3487 22.0852C67.7692 21.8011 68.2711 21.6591 68.8544 21.6591C69.4453 21.6591 69.9434 21.803 70.3487 22.0909C70.7578 22.375 71.0457 22.7633 71.2124 23.2557H71.3033C71.4964 22.7708 71.8222 22.3845 72.2805 22.0966C72.7427 21.8049 73.29 21.6591 73.9226 21.6591C74.7256 21.6591 75.3809 21.9129 75.8885 22.4205C76.3961 22.928 76.6499 23.6686 76.6499 24.642V30.5H74.5874V24.9602C74.5874 24.4186 74.4434 24.0227 74.1555 23.7727C73.8677 23.5189 73.5154 23.392 73.0987 23.392C72.6025 23.392 72.2143 23.5473 71.9339 23.858C71.6574 24.1648 71.5192 24.5644 71.5192 25.0568V30.5H69.5021V24.875C69.5021 24.4242 69.3658 24.0644 69.093 23.7955C68.8241 23.5265 68.4718 23.392 68.0362 23.392C67.7408 23.392 67.4718 23.4678 67.2294 23.6193C66.987 23.767 66.7938 23.9773 66.6499 24.25C66.5059 24.5189 66.4339 24.8333 66.4339 25.1932V30.5H64.3771ZM78.7365 33.7727V21.7727H80.7592V23.2159H80.8786C80.9846 23.0038 81.1342 22.7784 81.3274 22.5398C81.5206 22.2973 81.782 22.0909 82.1115 21.9205C82.4411 21.7462 82.8615 21.6591 83.3729 21.6591C84.0471 21.6591 84.6551 21.8314 85.1967 22.1761C85.7422 22.517 86.174 23.0227 86.4922 23.6932C86.8142 24.3598 86.9751 25.178 86.9751 26.1477C86.9751 27.1061 86.8179 27.9205 86.5036 28.5909C86.1892 29.2614 85.7611 29.7727 85.2195 30.125C84.6778 30.4773 84.0642 30.6534 83.3786 30.6534C82.8786 30.6534 82.4638 30.5701 82.1342 30.4034C81.8047 30.2367 81.5395 30.036 81.3388 29.8011C81.1418 29.5625 80.9884 29.3371 80.8786 29.125H80.7933V33.7727H78.7365ZM80.7536 26.1364C80.7536 26.7008 80.8331 27.1951 80.9922 27.6193C81.1551 28.0436 81.388 28.375 81.6911 28.6136C81.9979 28.8485 82.3691 28.9659 82.8047 28.9659C83.2592 28.9659 83.6399 28.8447 83.9467 28.6023C84.2536 28.3561 84.4846 28.0208 84.6399 27.5966C84.799 27.1686 84.8786 26.6818 84.8786 26.1364C84.8786 25.5947 84.8009 25.1136 84.6456 24.6932C84.4903 24.2727 84.2592 23.9432 83.9524 23.7045C83.6456 23.4659 83.263 23.3466 82.8047 23.3466C82.3653 23.3466 81.9922 23.4621 81.6854 23.6932C81.3786 23.9242 81.1456 24.2481 80.9865 24.6648C80.8312 25.0814 80.7536 25.572 80.7536 26.1364ZM92.5433 30.6705C91.6911 30.6705 90.9524 30.483 90.3274 30.108C89.7024 29.733 89.2176 29.2083 88.8729 28.5341C88.532 27.8598 88.3615 27.072 88.3615 26.1705C88.3615 25.2689 88.532 24.4792 88.8729 23.8011C89.2176 23.1231 89.7024 22.5966 90.3274 22.2216C90.9524 21.8466 91.6911 21.6591 92.5433 21.6591C93.3956 21.6591 94.1342 21.8466 94.7592 22.2216C95.3842 22.5966 95.8672 23.1231 96.2081 23.8011C96.5528 24.4792 96.7251 25.2689 96.7251 26.1705C96.7251 27.072 96.5528 27.8598 96.2081 28.5341C95.8672 29.2083 95.3842 29.733 94.7592 30.108C94.1342 30.483 93.3956 30.6705 92.5433 30.6705ZM92.5547 29.0227C93.0168 29.0227 93.4032 28.8958 93.7138 28.642C94.0244 28.3845 94.2554 28.0398 94.407 27.608C94.5623 27.1761 94.6399 26.6951 94.6399 26.1648C94.6399 25.6307 94.5623 25.1477 94.407 24.7159C94.2554 24.2803 94.0244 23.9337 93.7138 23.6761C93.4032 23.4186 93.0168 23.2898 92.5547 23.2898C92.0812 23.2898 91.6873 23.4186 91.3729 23.6761C91.0623 23.9337 90.8293 24.2803 90.674 24.7159C90.5225 25.1477 90.4467 25.6307 90.4467 26.1648C90.4467 26.6951 90.5225 27.1761 90.674 27.608C90.8293 28.0398 91.0623 28.3845 91.3729 28.642C91.6873 28.8958 92.0812 29.0227 92.5547 29.0227ZM100.528 25.3864V30.5H98.4709V21.7727H100.437V23.2557H100.539C100.74 22.767 101.06 22.3788 101.499 22.0909C101.942 21.803 102.49 21.6591 103.141 21.6591C103.744 21.6591 104.268 21.7879 104.715 22.0455C105.166 22.303 105.514 22.6761 105.761 23.1648C106.011 23.6534 106.134 24.2462 106.13 24.9432V30.5H104.073V25.2614C104.073 24.678 103.922 24.2216 103.619 23.892C103.319 23.5625 102.905 23.3977 102.374 23.3977C102.014 23.3977 101.694 23.4773 101.414 23.6364C101.138 23.7917 100.92 24.017 100.761 24.3125C100.605 24.608 100.528 24.9659 100.528 25.3864ZM112.085 30.6705C111.21 30.6705 110.454 30.4886 109.817 30.125C109.185 29.7576 108.698 29.2386 108.357 28.5682C108.016 27.8939 107.846 27.1004 107.846 26.1875C107.846 25.2898 108.016 24.5019 108.357 23.8239C108.702 23.142 109.183 22.6117 109.8 22.233C110.418 21.8504 111.143 21.6591 111.977 21.6591C112.514 21.6591 113.022 21.7462 113.499 21.9205C113.98 22.0909 114.405 22.3561 114.772 22.7159C115.143 23.0758 115.435 23.5341 115.647 24.0909C115.859 24.6439 115.965 25.303 115.965 26.0682V26.6989H108.812V25.3125H113.994C113.99 24.9186 113.905 24.5682 113.738 24.2614C113.571 23.9508 113.338 23.7064 113.039 23.5284C112.744 23.3504 112.399 23.2614 112.005 23.2614C111.585 23.2614 111.215 23.3636 110.897 23.5682C110.579 23.7689 110.331 24.0341 110.153 24.3636C109.978 24.6894 109.889 25.0473 109.886 25.4375V26.6477C109.886 27.1553 109.978 27.5909 110.164 27.9545C110.35 28.3144 110.609 28.5909 110.942 28.7841C111.276 28.9735 111.666 29.0682 112.113 29.0682C112.412 29.0682 112.683 29.0265 112.925 28.9432C113.168 28.8561 113.378 28.7292 113.556 28.5625C113.734 28.3958 113.869 28.1894 113.96 27.9432L115.88 28.1591C115.759 28.6667 115.528 29.1098 115.187 29.4886C114.85 29.8636 114.418 30.1553 113.891 30.3636C113.365 30.5682 112.763 30.6705 112.085 30.6705ZM119.762 25.3864V30.5H117.705V21.7727H119.671V23.2557H119.773C119.974 22.767 120.294 22.3788 120.734 22.0909C121.177 21.803 121.724 21.6591 122.376 21.6591C122.978 21.6591 123.503 21.7879 123.95 22.0455C124.4 22.303 124.749 22.6761 124.995 23.1648C125.245 23.6534 125.368 24.2462 125.364 24.9432V30.5H123.308V25.2614C123.308 24.678 123.156 24.2216 122.853 23.892C122.554 23.5625 122.139 23.3977 121.609 23.3977C121.249 23.3977 120.929 23.4773 120.648 23.6364C120.372 23.7917 120.154 24.017 119.995 24.3125C119.84 24.608 119.762 24.9659 119.762 25.3864ZM131.813 21.7727V23.3636H126.796V21.7727H131.813ZM128.035 19.6818H130.092V27.875C130.092 28.1515 130.133 28.3636 130.217 28.5114C130.304 28.6553 130.417 28.7538 130.558 28.8068C130.698 28.8598 130.853 28.8864 131.023 28.8864C131.152 28.8864 131.27 28.8769 131.376 28.858C131.486 28.839 131.569 28.822 131.626 28.8068L131.972 30.4148C131.862 30.4527 131.705 30.4943 131.501 30.5398C131.3 30.5852 131.054 30.6117 130.762 30.6193C130.247 30.6345 129.783 30.5568 129.37 30.3864C128.957 30.2121 128.629 29.9432 128.387 29.5795C128.148 29.2159 128.031 28.7614 128.035 28.2159V19.6818ZM140.306 24.0795L138.431 24.2841C138.378 24.0947 138.285 23.9167 138.153 23.75C138.024 23.5833 137.85 23.4489 137.63 23.3466C137.41 23.2443 137.141 23.1932 136.823 23.1932C136.395 23.1932 136.035 23.286 135.744 23.4716C135.456 23.6572 135.314 23.8977 135.317 24.1932C135.314 24.447 135.406 24.6534 135.596 24.8125C135.789 24.9716 136.107 25.1023 136.55 25.2045L138.039 25.5227C138.865 25.7008 139.478 25.983 139.88 26.3693C140.285 26.7557 140.49 27.2614 140.494 27.8864C140.49 28.4356 140.329 28.9205 140.011 29.3409C139.696 29.7576 139.259 30.0833 138.698 30.3182C138.138 30.553 137.494 30.6705 136.766 30.6705C135.698 30.6705 134.838 30.447 134.187 30C133.535 29.5492 133.147 28.9223 133.022 28.1193L135.028 27.9261C135.119 28.3201 135.312 28.6174 135.607 28.8182C135.903 29.0189 136.287 29.1193 136.761 29.1193C137.249 29.1193 137.641 29.0189 137.937 28.8182C138.236 28.6174 138.386 28.3693 138.386 28.0739C138.386 27.8239 138.289 27.6174 138.096 27.4545C137.906 27.2917 137.611 27.1667 137.21 27.0795L135.721 26.767C134.884 26.5928 134.264 26.2992 133.863 25.8864C133.461 25.4697 133.263 24.9432 133.266 24.3068C133.263 23.7689 133.408 23.303 133.704 22.9091C134.003 22.5114 134.418 22.2045 134.948 21.9886C135.482 21.7689 136.098 21.6591 136.795 21.6591C137.817 21.6591 138.622 21.8769 139.21 22.3125C139.8 22.7481 140.166 23.3371 140.306 24.0795Z" fill="#0073E5"/>
</svg>
